<svg width="16" height="16" viewBox="0 0 16 16" fill="none" xmlns="http://www.w3.org/2000/svg">
<path d="M7.99992 14.6666C11.6139 14.6666 14.6666 11.6139 14.6666 7.99992C14.6666 4.38592 11.6139 1.33325 7.99992 1.33325C4.38592 1.33325 1.33325 4.38592 1.33325 7.99992C1.33325 11.6139 4.38592 14.6666 7.99992 14.6666ZM7.99992 2.66659C10.8913 2.66659 13.3333 5.10859 13.3333 7.99992C13.3333 10.8913 10.8913 13.3333 7.99992 13.3333C5.10859 13.3333 2.66659 10.8913 2.66659 7.99992C2.66659 5.10859 5.10859 2.66659 7.99992 2.66659Z" fill="white"/>
<path d="M8.00008 11.3334C8.60075 11.3334 9.72075 11.2214 10.4714 10.4721L9.52875 9.52808C9.23341 9.82341 8.66141 10.0001 8.00008 10.0001C6.91608 10.0001 6.00008 9.08408 6.00008 8.00008C6.00008 6.91608 6.91608 6.00008 8.00008 6.00008C8.66208 6.00008 9.23408 6.17675 9.52875 6.47141L10.4714 5.52875C9.72141 4.77875 8.60075 4.66675 8.00008 4.66675C6.16208 4.66675 4.66675 6.16208 4.66675 8.00008C4.66675 9.83808 6.16208 11.3334 8.00008 11.3334Z" fill="white"/>
</svg>
