<svg width="166" height="55" viewBox="0 0 166 55" fill="none" xmlns="http://www.w3.org/2000/svg">
<path d="M57.7556 31.0654C59.007 32.188 60.6095 32.7877 62.2823 32.7877C65.0851 32.7877 66.5345 30.9378 66.6877 28.9604H60.9096V25.4585H66.5153C66.1641 23.3599 64.287 21.9821 62.0588 21.9821C60.584 21.9821 59.007 22.5307 57.7556 23.6533V19.354C59.307 18.5248 61.2097 18.1294 62.71 18.1294C67.7411 18.1294 71.4187 21.9055 71.4187 27.1297C71.4187 33.4829 67.0899 36.6276 62.6845 36.6276C59.9583 36.6276 58.1833 35.6772 57.7556 35.4284V31.0654Z" fill="white"/>
<path d="M73.8062 18.6333H78.7096V25.988L83.9897 18.6333H89.7485L83.0894 27.1107L89.9213 36.1365H83.7917L78.7096 28.6096V36.1365H73.8062V18.6333Z" fill="white"/>
<path d="M99.8175 18.6333C104.574 18.6333 105.047 21.7334 105.047 23.0857C105.047 24.9355 103.744 26.2368 102.32 26.7343V26.7853C103.47 27.0596 106.023 28.0611 106.023 31.2568C106.023 33.7062 104.344 36.1301 100.289 36.1301H91.332V18.627H99.8175V18.6333ZM98.2913 25.535C100.219 25.535 100.545 24.5336 100.545 23.883C100.545 22.9581 99.97 22.1352 98.2913 22.1352H96.2418V25.535H98.2913ZM98.4895 32.6346C99.2425 32.6346 101.119 32.6091 101.119 30.7847C101.119 29.037 99.2933 29.037 98.4895 29.037H96.2418V32.6346H98.4895Z" fill="white"/>
<path d="M113.04 18.6333V29.1391L119.821 18.6333H124.628V36.1365H119.897V25.6372L113.116 36.1365H108.309V18.6333H113.04Z" fill="white"/>
<path d="M131.994 18.6333L135.424 25.988L138.226 18.6333H143.558L135.673 36.1365H130.417L132.793 31.3142L126.211 18.6333H131.994Z" fill="white"/>
<path d="M146.292 18.6333H151.196L154.273 29.3113L157.356 18.6333H162.26L164.813 36.1365H160.108L158.806 25.988L155.849 36.1365H152.696L149.746 25.988L148.444 36.1365H143.738L146.292 18.6333Z" fill="white"/>
<path fill-rule="evenodd" clip-rule="evenodd" d="M0 27.4359C0.0766154 26.7407 0.274538 24.2019 0.440538 23.5386C1.47485 19.2393 3.89461 15.9032 7.57216 13.4283C7.82754 13.2561 8.07654 13.0838 8.33193 12.8989C8.38301 12.8606 8.40854 12.7905 8.44686 12.7394C8.37662 12.733 8.29362 12.6948 8.22339 12.7139C7.80201 12.8159 7.36785 12.8925 6.95924 13.0456C6.46124 13.2242 6.12924 13.0456 5.82916 12.6629C4.9417 11.5466 4.30323 10.3028 3.96485 8.9122C3.69669 7.8278 3.72862 6.72428 3.84354 5.62715C3.90739 4.98928 4.06062 4.84894 4.71185 4.74689C5.66316 4.60017 6.60809 4.74051 7.54024 4.90636C9.38544 5.22529 11.0581 5.99712 12.616 7.01132C12.7246 7.0815 12.8331 7.15166 12.9225 7.24096C13.1587 7.47697 13.1459 7.71936 12.8395 7.85331C12.1116 8.17225 11.371 8.45292 10.624 8.7208C10.3048 8.83562 10.0239 8.66343 9.75572 8.51036C8.86821 8.02554 7.89778 7.78315 6.92732 7.55352C6.49954 7.45146 6.34631 7.61093 6.48039 8.0383C6.69746 8.73358 7.07416 9.33316 7.54662 9.88815C8.3447 10.8386 8.33832 10.8386 9.46835 10.3857C10.9879 9.77333 12.5202 9.18009 14.0334 8.55495C15.3614 8.00641 15.2656 7.98089 14.2441 7.07512C12.9736 5.94608 11.5498 5.04031 10.0813 4.19194C9.91528 4.09626 9.63435 4.03885 9.64714 3.82198C9.65358 3.6051 9.94086 3.57321 10.1132 3.47114C13.363 1.62132 16.8809 0.549699 20.5776 0.115947C22.2376 -0.0754148 23.9104 -0.0307631 25.5576 0.256279C28.0859 0.690031 30.5759 1.27049 32.9255 2.36125C33.6214 2.68656 34.3046 3.04378 34.9686 3.4265C35.1218 3.51579 35.2686 3.62424 35.4027 3.73905C35.5432 3.86663 35.5368 4.00058 35.3644 4.10902C35.2367 4.19194 35.1154 4.294 34.9814 4.36417C33.1681 5.34649 31.5719 6.63498 29.9822 7.92348C29.6949 8.1595 29.4586 8.1595 29.1522 8.03192C27.9136 7.528 26.643 7.10063 25.315 6.96667C22.0078 6.6286 18.8027 6.95392 15.9105 8.77182C13.9121 10.0284 12.3989 11.7316 11.4987 13.945C11.2306 14.6083 10.9113 15.2526 10.7134 15.9415C10.6049 16.3306 10.6304 16.4072 11.0007 16.4582C11.8371 16.5858 12.6735 16.6814 13.5099 16.7899C15.3104 17.0195 17.1108 17.2364 18.9112 17.4852C19.6646 17.5872 19.7413 17.7212 19.6455 18.4292C19.3646 20.5087 19.0964 22.5882 18.9049 24.6804C18.8921 24.8079 18.8729 24.9355 18.8346 25.0566C18.7389 25.3437 18.8794 25.433 19.1284 25.433C19.7476 25.4394 20.3606 25.433 20.9735 25.4394C21.1011 25.4394 21.2289 25.4394 21.3566 25.4394C22.1291 25.4458 22.1355 25.4458 22.1355 26.1858C22.1419 28.7245 22.1419 31.2568 22.1355 33.7955C22.1355 34.4908 22.1099 34.4908 21.4459 34.6694C20.2584 34.9883 19.0517 35.2116 17.845 35.4476C17.5769 35.4986 17.4939 35.6007 17.6088 35.8622C17.8578 36.4491 18.094 37.0422 18.343 37.6355C18.4962 38.0054 18.7389 38.1777 19.173 38.1586C19.9647 38.1267 20.7628 38.1521 21.5545 38.1649C22.1036 38.1777 22.1291 38.1968 22.1355 38.7263C22.1419 40.238 22.1291 41.7497 22.1483 43.2615C22.1483 43.657 21.995 43.9376 21.7269 44.2055C20.7054 45.2134 19.6901 46.2276 18.675 47.2418C17.7492 48.1667 16.8299 49.098 15.9041 50.0166C15.4444 50.4694 15.4316 50.4694 15.0166 50.0038C13.0501 47.7904 11.8243 45.207 11.1922 42.3239C10.6559 39.9 10.5857 37.4442 10.7645 34.9883C10.873 33.4383 11.1859 31.901 11.5561 30.3829C11.6136 30.1533 11.7924 29.8471 11.5626 29.7068C11.4476 29.643 11.2689 30.0129 11.1539 30.2043C9.39179 33.1322 8.14678 36.2449 7.65517 39.6384C7.44447 41.0864 7.34232 42.5407 7.36785 44.0014C7.37424 44.1545 7.38062 44.3076 7.36785 44.4607C7.36146 44.5756 7.39978 44.7286 7.22101 44.7669C7.10609 44.7924 7.02309 44.7223 6.95924 44.6457C6.58254 44.1928 6.19308 43.7527 5.83554 43.287C4.09892 41.0418 2.73261 38.5923 1.66639 35.9642C1.39823 35.2945 1.39824 34.7204 1.70469 34.0634C3.01993 31.2504 4.72462 28.7117 6.95924 26.5429C7.17632 26.3324 7.4317 26.1474 7.55301 25.8476C7.20185 25.803 6.94646 26.039 6.66554 26.1793C4.66077 27.1935 2.87308 28.5139 1.20031 30.0002C1.14285 30.0512 1.09177 30.115 1.02792 30.1533C0.849158 30.2745 0.740617 30.5742 0.478846 30.4659C0.261769 30.4148 0 28.7627 0 27.4359ZM16.7086 23.3089H16.7214C16.7214 22.5945 16.7021 21.8737 16.7341 21.1593C16.7469 20.7702 16.6064 20.5406 16.2744 20.3619C15.0805 19.7113 13.8994 19.0543 12.7181 18.3846C12.45 18.2315 12.2585 18.2762 12.0478 18.4994C11.5561 19.0225 11.1029 19.5774 10.6751 20.1515C10.375 20.547 10.3814 20.5597 10.7645 20.8914C11.9265 21.8929 13.1012 22.888 14.2696 23.8894C14.9719 24.489 15.6679 25.0885 16.3701 25.6882C16.4468 25.7519 16.5298 25.8541 16.6384 25.8094C16.7469 25.7647 16.7149 25.6372 16.7149 25.5478C16.7086 24.7952 16.7086 24.0552 16.7086 23.3089ZM20.6096 30.6572C20.6415 30.3446 20.6159 30.0704 20.3286 29.8344C19.3135 29.0115 18.3175 28.1695 17.3215 27.3211C17.0916 27.1234 16.932 27.1425 16.7469 27.3658C16.1659 28.0547 15.5912 28.7372 14.9911 29.4005C14.7931 29.6174 14.8251 29.7833 14.94 30.0129C15.4189 30.9506 15.8721 31.8883 16.351 32.8259C16.6128 33.3363 16.6256 33.3363 17.1682 33.0556C18.1451 32.5517 19.1091 32.0158 20.1051 31.5502C20.5266 31.3461 20.6861 31.0909 20.6096 30.6572Z" fill="white"/>
<path fill-rule="evenodd" clip-rule="evenodd" d="M40.4667 27.8315C40.3965 28.6926 40.256 29.7068 40.0389 30.7019C39.343 33.9168 38.2576 37.004 36.6615 39.8872C34.8866 43.0957 32.6519 45.9278 29.8555 48.3326C27.8507 50.0485 25.6161 51.3689 23.2793 52.549C22.3152 53.0338 21.2746 53.3144 20.2658 53.6844C20.0296 53.7673 19.8252 53.7418 19.6081 53.6142C18.51 52.9636 17.4182 52.2874 16.4605 51.4199C15.9689 50.9735 15.9689 50.9542 16.4605 50.4631C17.4757 49.4489 18.5036 48.4539 19.5188 47.4396C26.2481 40.7292 32.9711 34.0125 39.7069 27.302C39.9112 27.0979 40.1028 26.6833 40.3965 26.8045C40.6136 26.8938 40.4476 27.3212 40.4731 27.5955C40.4731 27.621 40.4667 27.6465 40.4667 27.8315Z" fill="white"/>
<path fill-rule="evenodd" clip-rule="evenodd" d="M34.0299 26.0135H38.8759C39.0546 26.0135 39.2334 26.0072 39.4122 26.0199C39.5335 26.0263 39.6867 25.988 39.7378 26.1348C39.7761 26.2368 39.6676 26.3133 39.5974 26.3835C39.5079 26.4791 39.4186 26.5685 39.3292 26.6578C34.0299 31.9457 28.7371 37.2337 23.4379 42.5152C23.3293 42.6237 23.2271 42.7385 23.1059 42.8342C22.959 42.9554 22.876 42.8788 22.8632 42.7194C22.8505 42.5152 22.8505 42.3111 22.8505 42.107C22.8505 40.978 22.8441 39.8553 22.8569 38.7263C22.8632 38.216 22.876 38.2096 23.3804 38.1969C24.1721 38.1841 24.9701 38.165 25.7619 38.1841C26.1514 38.1905 26.3876 38.0438 26.528 37.693C26.7642 37.0997 27.0005 36.5065 27.2559 35.9197C27.3964 35.6007 27.2431 35.5242 26.9686 35.4667C25.8449 35.2307 24.7211 34.9692 23.5975 34.7204C23.4442 34.6885 23.2974 34.6439 23.1506 34.6056C22.9462 34.5546 22.8505 34.4334 22.8505 34.2229C22.8505 34.0698 22.8441 33.9168 22.8441 33.7637V26.307C22.8441 26.1794 22.8505 26.0518 22.8441 25.9242C22.8249 25.5925 22.9846 25.4649 23.3038 25.4713C24.0189 25.4777 24.7403 25.4777 25.4554 25.4649C26.1194 25.4586 26.0939 25.4586 26.0172 24.8398C25.8321 23.3727 25.6661 21.8929 25.4937 20.4194C25.4107 19.7114 25.3213 18.9969 25.2319 18.2889C25.1681 17.7594 25.2256 17.6511 25.7619 17.5681C26.7004 17.4214 27.6389 17.2938 28.5775 17.1726C30.7801 16.8792 32.9893 16.5985 35.1984 16.3115C35.8559 16.2222 36.5264 16.1712 37.1776 16.0373C37.5798 15.9543 37.7905 16.0946 37.9884 16.42C38.5311 17.3257 38.9716 18.2762 39.3419 19.2585C39.9485 20.8723 40.2805 22.5499 40.4465 24.2593C40.4593 24.3869 40.4976 24.5528 40.3826 24.6166C40.2614 24.6804 40.1592 24.5464 40.0698 24.4571C38.8759 23.2579 37.6756 22.0651 36.4816 20.8723C35.5941 19.9857 34.7067 19.0926 33.8129 18.2124C33.3404 17.7403 33.417 17.7722 32.8424 18.0848C31.4441 18.8374 30.0651 19.6221 28.6605 20.3684C28.2966 20.5597 28.1369 20.8021 28.1625 21.2167C28.2071 22.0588 28.1561 22.9071 28.2263 23.7491C28.271 24.2339 28.2455 24.7186 28.2136 25.2098C28.1625 26.0326 28.1497 26.0391 29.018 26.0391H34.0299V26.0135ZM24.2679 30.536C24.2998 30.9379 24.1976 31.2504 24.5743 31.4354C25.698 31.984 26.8026 32.5644 27.9199 33.1322C28.1434 33.2469 28.3285 33.3172 28.4754 33.0109C28.9734 31.9776 29.4841 30.9506 30.0076 29.93C30.1289 29.694 30.0396 29.5473 29.8991 29.3879C29.3309 28.7373 28.7626 28.0738 28.1816 27.4296C27.8751 27.0852 27.856 27.0915 27.5049 27.3786C26.5599 28.1632 25.6278 28.9605 24.6829 29.7323C24.3891 29.981 24.204 30.2426 24.2679 30.536Z" fill="white"/>
<path fill-rule="evenodd" clip-rule="evenodd" d="M45.1271 26.3326C45.0952 32.6666 43.5119 37.1827 40.792 41.3098C37.0953 46.9294 32.0706 50.9735 25.8903 53.6015C25.0411 53.9651 24.1664 54.2585 23.3173 54.6094C22.5958 54.9155 21.9637 54.6285 21.3253 54.3543C21.1976 54.2968 21.2486 54.1756 21.3508 54.131C21.5806 54.0226 21.8168 53.9269 22.0595 53.8375C25.1688 52.6766 27.9781 50.9862 30.4489 48.7983C34.2541 45.4431 37.1464 41.4182 39.0171 36.6789C39.7513 34.8162 40.3898 32.9281 40.7729 30.9635C41.3091 28.2525 41.3411 25.5353 40.9708 22.7924C40.7154 20.866 40.1982 19.0417 39.3363 17.3067C39.1575 16.9367 38.9341 16.5923 38.7553 16.2223C38.6021 15.9225 38.6659 15.8205 39.0043 15.7695C39.2596 15.7311 39.5279 15.7503 39.7641 15.6801C40.1152 15.5717 40.3451 15.7057 40.5813 15.948C41.4815 16.8666 42.2732 17.868 42.9053 18.997C44.4121 21.6952 45.1719 24.5784 45.1271 26.3326Z" fill="white"/>
<path fill-rule="evenodd" clip-rule="evenodd" d="M30.1218 9.44793C30.077 9.61377 29.9366 9.69035 29.8217 9.78605C28.3851 11.0235 26.955 12.2546 25.512 13.4857C24.6757 14.2001 23.8329 14.9017 22.9901 15.6098C22.4538 16.0563 22.4538 16.0626 21.9048 15.6034C20.1298 14.098 18.3549 12.5927 16.58 11.0873C16.2863 10.8385 15.999 10.5834 15.6989 10.3474C15.4499 10.1496 15.4754 9.99014 15.7244 9.81152C17.0141 8.90579 18.4188 8.24875 19.9702 7.92982C21.3046 7.65553 22.6518 7.53434 24.0053 7.61726C26.042 7.74484 27.9829 8.28065 29.8217 9.14813C29.9558 9.21193 30.1218 9.25018 30.1218 9.44793Z" fill="white"/>
<path fill-rule="evenodd" clip-rule="evenodd" d="M39.5269 4.70854C39.8908 4.69578 40.242 4.72768 40.5931 4.80423C41.1677 4.9318 41.3082 5.07213 41.3912 5.66535C41.6338 7.33019 41.3337 8.91846 40.7016 10.4558C40.2803 11.4827 39.6099 12.363 38.9778 13.2624C38.7863 13.5367 38.5947 13.5367 38.3457 13.3134C37.7966 12.8223 37.2284 12.3311 36.6602 11.8591C36.4303 11.6614 36.4303 11.5019 36.641 11.2913C37.3561 10.5515 37.8988 9.68398 38.3968 8.78452C38.5436 8.51663 38.6905 8.24235 38.748 7.93617C38.8054 7.5981 38.6522 7.43863 38.3138 7.55345C37.5349 7.8086 36.7751 8.10202 36.0025 8.38268C35.7663 8.4656 35.5237 8.56765 35.2811 8.64423C34.93 8.75262 34.5596 8.77817 34.2213 8.64423C33.5828 8.38268 32.9571 8.08926 32.3314 7.79584C32.0568 7.66826 32.1015 7.49604 32.2931 7.33019C32.4463 7.19624 32.5932 7.04953 32.7592 6.93472C34.8086 5.5314 37.0624 4.79147 39.5269 4.70854Z" fill="white"/>
<path fill-rule="evenodd" clip-rule="evenodd" d="M31.9623 15.9415C31.7453 15.9734 31.5538 15.8777 31.3813 15.6991C30.4046 14.6849 29.4213 13.677 28.4572 12.65C28.1699 12.3439 28.1763 12.2546 28.5083 11.9612C29.2744 11.2787 30.0661 10.6216 30.8259 9.93914C30.9983 9.78607 31.1323 9.79242 31.3048 9.88812C31.4643 9.97104 31.6303 10.0475 31.7772 10.1369C33.6798 11.3361 35.3462 12.7968 36.7445 14.5637C36.8402 14.6849 36.936 14.806 37.019 14.9336C37.1339 15.1123 37.0446 15.2399 36.8658 15.2653C36.5146 15.3228 36.1571 15.3483 35.7996 15.3929C34.5801 15.5651 33.367 15.7438 32.1539 15.9159C32.0964 15.9351 32.0453 15.9351 31.9623 15.9415Z" fill="white"/>
<path fill-rule="evenodd" clip-rule="evenodd" d="M34.4129 25.4394C32.8743 25.4394 31.3419 25.4394 29.8033 25.4394C29.6245 25.4394 29.4457 25.4458 29.2669 25.4267C29.0882 25.4076 29.0626 25.2928 29.1584 25.1588C29.2158 25.0759 29.3053 25.0121 29.3818 24.9483C31.0738 23.5004 32.7657 22.0523 34.464 20.6107C34.8343 20.2918 34.8598 20.2855 35.2237 20.6363C36.6795 22.0715 38.1287 23.5258 39.5781 24.9738C39.6164 25.0121 39.6483 25.044 39.6866 25.0886C39.859 25.3055 39.8335 25.4076 39.5717 25.4331C39.3929 25.4458 39.2142 25.4394 39.0354 25.4458H34.4129V25.4394Z" fill="white"/>
<path fill-rule="evenodd" clip-rule="evenodd" d="M12.8587 15.9478C11.5562 15.7947 11.6329 15.5842 11.984 14.723C12.5522 13.3133 13.2801 12.0058 14.3847 10.9341C14.755 10.5769 14.7614 10.5642 15.138 10.8767C15.5914 11.2467 16.0255 11.6485 16.4788 12.0185C16.7023 12.2034 16.7278 12.3821 16.5299 12.5926C16.4277 12.701 16.3384 12.835 16.2362 12.9434C15.3615 13.8364 14.474 14.723 13.6057 15.6288C13.3695 15.8776 13.1141 15.9988 12.8587 15.9478Z" fill="white"/>
<path d="M58.1062 42.9937H59.9769V43.5231H58.6808V44.4864H59.0448C59.3193 44.4864 59.6896 44.5246 59.9833 44.7861C60.194 44.9711 60.3345 45.2645 60.3345 45.6026C60.3345 45.8768 60.2323 46.266 59.8748 46.5083C59.5939 46.6934 59.3001 46.7125 59.0576 46.7125H58.1062V42.9937ZM58.6808 46.1831H59.0192C59.1661 46.1831 59.7534 46.1831 59.7534 45.6154C59.7534 45.4431 59.696 45.0221 59.032 45.0221H58.6808V46.1831Z" fill="white"/>
<path d="M66.7259 44.2054L64.2168 46.8717V42.9935H64.7914V45.5004L67.3005 42.8276V46.7123H66.7259V44.2054Z" fill="white"/>
<path d="M71.3491 43.4656C71.6683 43.0892 72.0003 42.917 72.4791 42.917C72.875 42.917 73.124 43.0382 73.2964 43.1849C73.539 43.3954 73.6028 43.6251 73.6028 43.8802C73.6028 44.3203 73.3475 44.5499 73.1431 44.6647C73.6093 44.7923 73.8327 45.1687 73.8327 45.6088C73.8327 45.9788 73.7114 46.2977 73.3475 46.5337C73.1048 46.6932 72.7793 46.7888 72.4664 46.7888C71.7705 46.7888 71.3236 46.438 71.0618 45.8894L71.5598 45.6279C71.796 46.2148 72.3196 46.253 72.5111 46.253C72.6516 46.253 72.8495 46.2211 72.9899 46.1319C73.2134 45.9915 73.2517 45.7937 73.2517 45.647C73.2517 45.0602 72.709 45.0092 72.3706 45.0092H72.0322V44.4798H72.3706C72.7665 44.4798 73.0346 44.2692 73.0346 43.9184C73.0346 43.7972 73.0027 43.6824 72.9069 43.5932C72.7728 43.4656 72.6068 43.4464 72.4664 43.4464C72.2557 43.4464 71.962 43.491 71.713 43.8227L71.3491 43.4656Z" fill="white"/>
<path d="M78.2949 44.448H79.8846V42.9937H80.4592V46.7125H79.8846V44.9775H78.2949V46.7125H77.7266V42.9937H78.2949V44.448Z" fill="white"/>
<path d="M86.5681 43.5231H85.0869V44.4161H86.5232V44.9456H85.0869V46.1831H86.5681V46.7125H84.512V42.9937H86.5681V43.5231Z" fill="white"/>
<path d="M93.2412 43.861C92.8457 43.4783 92.4375 43.4464 92.2325 43.4464C91.422 43.4464 90.8918 44.046 90.8918 44.8689C90.8918 45.6598 91.4415 46.253 92.2325 46.253C92.4053 46.253 92.8203 46.2211 93.2412 45.8256V46.5018C93.1269 46.5784 92.7754 46.7888 92.2139 46.7888C91.9005 46.7888 91.3771 46.7187 90.8918 46.2722C90.5344 45.9277 90.2981 45.4748 90.2981 44.8689C90.2981 44.3841 90.4455 43.8355 90.8918 43.4081C91.2814 43.0382 91.7286 42.917 92.2393 42.917C92.7178 42.917 93.0058 43.0382 93.2353 43.1912V43.861H93.2412Z" fill="white"/>
<path d="M104.318 43.861C103.922 43.4783 103.514 43.4464 103.309 43.4464C102.498 43.4464 101.975 44.046 101.975 44.8689C101.975 45.6598 102.524 46.253 103.309 46.253C103.481 46.253 103.896 46.2211 104.318 45.8256V46.5018C104.196 46.5784 103.852 46.7888 103.296 46.7888C102.977 46.7888 102.453 46.7187 101.975 46.2722C101.611 45.9277 101.374 45.4748 101.374 44.8689C101.374 44.3841 101.528 43.8355 101.975 43.4081C102.364 43.0382 102.811 42.917 103.322 42.917C103.801 42.917 104.088 43.0382 104.318 43.1912V43.861Z" fill="white"/>
<path d="M111.897 44.8561C111.897 45.9405 111.073 46.7888 109.962 46.7888C108.844 46.7888 108.021 45.9405 108.021 44.8561C108.021 43.759 108.844 42.917 109.962 42.917C111.073 42.917 111.897 43.7653 111.897 44.8561ZM111.303 44.8561C111.303 44.0332 110.748 43.4464 109.962 43.4464C109.171 43.4464 108.622 44.0332 108.622 44.8561C108.622 45.6726 109.176 46.253 109.962 46.253C110.748 46.253 111.303 45.6726 111.303 44.8561Z" fill="white"/>
<path d="M119.489 44.8561C119.489 45.9405 118.665 46.7888 117.548 46.7888C116.43 46.7888 115.607 45.9405 115.607 44.8561C115.607 43.759 116.437 42.917 117.548 42.917C118.659 42.917 119.489 43.7653 119.489 44.8561ZM118.889 44.8561C118.889 44.0332 118.333 43.4464 117.548 43.4464C116.756 43.4464 116.208 44.0332 116.208 44.8561C116.208 45.6726 116.756 46.253 117.548 46.253C118.333 46.253 118.889 45.6726 118.889 44.8561Z" fill="white"/>
<path d="M123.37 42.9937H125.241V43.5231H123.944V44.4864H124.309C124.583 44.4864 124.954 44.5246 125.247 44.7861C125.458 44.9711 125.598 45.2645 125.598 45.6026C125.598 45.8768 125.496 46.266 125.133 46.5083C124.851 46.6934 124.558 46.7125 124.321 46.7125H123.37V42.9937ZM123.944 46.1831H124.283C124.43 46.1831 125.017 46.1831 125.017 45.6154C125.017 45.4431 124.96 45.0221 124.29 45.0221H123.938V46.1831H123.944Z" fill="white"/>
<path d="M129.474 42.9937H130.049V46.1831H131.358V42.9937H131.939V46.1831H133.247V42.9937H133.822V46.1831H134.301V47.5545H133.765V46.7125H129.474V42.9937Z" fill="white"/>
<path d="M140.061 43.5231H138.579V44.4161H140.022V44.9456H138.579V46.1831H140.061V46.7125H138.004V42.9937H140.061V43.5231Z" fill="white"/>
<path d="M146.733 43.861C146.337 43.4783 145.922 43.4464 145.724 43.4464C144.913 43.4464 144.383 44.046 144.383 44.8689C144.383 45.6598 144.926 46.253 145.724 46.253C145.896 46.253 146.305 46.2211 146.733 45.8256V46.5018C146.618 46.5784 146.266 46.7888 145.711 46.7888C145.392 46.7888 144.868 46.7187 144.39 46.2722C144.025 45.9277 143.789 45.4748 143.789 44.8689C143.789 44.3841 143.942 43.8355 144.39 43.4081C144.779 43.0382 145.226 42.917 145.737 42.917C146.216 42.917 146.509 43.0382 146.733 43.1912V43.861Z" fill="white"/>
<path d="M151.661 43.5231V46.7125H151.08V43.5231H150.231V42.9937H152.504V43.5231H151.661Z" fill="white"/>
<path d="M156.749 42.9936C157.049 42.9936 157.375 42.9809 157.669 43.1913C157.892 43.3445 158.09 43.6059 158.09 44.0333C158.09 44.2438 158.045 44.499 157.764 44.7158C158.237 44.8562 158.416 45.2644 158.416 45.6152C158.416 45.8322 158.345 46.2149 158.039 46.4636C157.719 46.7315 157.311 46.7251 157.043 46.7251H156.187V43H156.749V42.9936ZM156.762 44.5883H156.934C157.055 44.5883 157.535 44.5883 157.535 44.0461C157.535 43.5358 157.075 43.523 156.947 43.523H156.756V44.5883H156.762ZM156.762 46.183H157.107C157.713 46.183 157.835 45.8576 157.835 45.6216C157.835 45.3665 157.694 45.0603 157.113 45.0603H156.762V46.183Z" fill="white"/>
<path d="M166 44.8561C166 45.9405 165.176 46.7888 164.059 46.7888C162.948 46.7888 162.125 45.9405 162.125 44.8561C162.125 43.759 162.955 42.917 164.059 42.917C165.17 42.917 166 43.7653 166 44.8561ZM165.406 44.8561C165.406 44.0332 164.857 43.4464 164.066 43.4464C163.28 43.4464 162.724 44.0332 162.724 44.8561C162.724 45.6726 163.28 46.253 164.066 46.253C164.851 46.253 165.406 45.6726 165.406 44.8561Z" fill="white"/>
<path d="M98.5152 44.6138H96.574V45.1432H98.5152V44.6138Z" fill="white"/>
</svg>
