<svg width="32" height="32" viewBox="0 0 32 32" fill="none" xmlns="http://www.w3.org/2000/svg">
<path fill-rule="evenodd" clip-rule="evenodd" d="M16 32C24.8366 32 32 24.8367 32 16C32 7.16328 24.8366 0 16 0C7.16344 0 0 7.16328 0 16C0 24.8367 7.16344 32 16 32ZM13.3301 16C13.3301 14.5309 14.5289 13.332 15.9979 13.332C17.4668 13.332 18.6656 14.5309 18.6656 16C18.6656 17.4691 17.4668 18.668 15.9979 18.668C14.5289 18.668 13.3301 17.4691 13.3301 16ZM23.9994 15.5957L23.9991 16L23.9995 16.452C24.001 17.4039 24.0024 18.35 23.9471 19.3023C23.885 20.5832 23.5948 21.718 22.6562 22.6566C21.7196 23.593 20.5829 23.8852 19.302 23.9473C18.3353 24.0016 17.3747 24.0004 16.4082 23.9992H15.9999H15.5923C14.627 24.0004 13.6662 24.0016 12.6977 23.9473C11.4168 23.8852 10.2821 23.5953 9.34348 22.6566C8.40686 21.7199 8.11467 20.5832 8.05262 19.3023C7.99059 18.1996 8.0006 17.1027 8.0006 16L8.00031 15.5965C7.99923 14.6297 7.99816 13.6676 8.05262 12.6977C8.11467 11.4168 8.40486 10.282 9.34348 9.34336C10.2801 8.40703 11.4168 8.11484 12.6977 8.05273C13.6644 7.99844 14.625 7.99961 15.5915 8.00078H15.9999C17.1026 8.00078 18.1973 7.99062 19.302 8.05273C20.5829 8.11484 21.7176 8.40469 22.6562 9.34336C23.5928 10.2801 23.885 11.4168 23.9471 12.6977C24.0016 13.6656 24.0005 14.6277 23.9994 15.5957ZM11.8932 16C11.8932 18.2715 13.7264 20.1047 15.9979 20.1047C18.2693 20.1047 20.1026 18.2715 20.1026 16C20.1026 13.7285 18.2693 11.8953 15.9979 11.8953C13.7264 11.8953 11.8932 13.7285 11.8932 16ZM19.312 11.727C19.312 12.2574 19.7403 12.6859 20.2707 12.6859C20.3966 12.6859 20.5213 12.6613 20.6377 12.6133C20.7541 12.5648 20.8598 12.4945 20.9489 12.4055C21.0379 12.3164 21.1085 12.2105 21.1566 12.0941C21.2048 11.9777 21.2294 11.8531 21.2293 11.727C21.2293 11.1969 20.801 10.7684 20.2707 10.7684C19.7403 10.7684 19.312 11.1969 19.312 11.727Z" fill="white"/>
</svg>
