<svg width="14" height="13" viewBox="0 0 14 13" fill="none" xmlns="http://www.w3.org/2000/svg">
<path fill-rule="evenodd" clip-rule="evenodd" d="M4.3545 0.121828C5.03875 0.0903282 5.25692 0.0833282 6.99992 0.0833282C8.74292 0.0833282 8.96108 0.0909116 9.64475 0.121828C10.3284 0.152745 10.7951 0.261828 11.2034 0.419912C11.631 0.581495 12.0189 0.834078 12.3397 1.16074C12.6664 1.48099 12.9184 1.86833 13.0794 2.29649C13.2381 2.70483 13.3466 3.17149 13.3781 3.85399C13.4096 4.53941 13.4166 4.75758 13.4166 6.49999C13.4166 8.24299 13.409 8.46116 13.3781 9.14541C13.3472 9.82791 13.2381 10.2946 13.0794 10.7029C12.9184 11.1311 12.666 11.5191 12.3397 11.8398C12.0189 12.1665 11.631 12.4185 11.2034 12.5795C10.7951 12.7382 10.3284 12.8467 9.64592 12.8782C8.96108 12.9097 8.74292 12.9167 6.99992 12.9167C5.25692 12.9167 5.03875 12.9091 4.3545 12.8782C3.672 12.8472 3.20533 12.7382 2.797 12.5795C2.36879 12.4185 1.98081 12.1661 1.66008 11.8398C1.33364 11.5194 1.08102 11.1316 0.919835 10.7035C0.761752 10.2952 0.653252 9.82849 0.621752 9.14599C0.590252 8.46058 0.583252 8.24241 0.583252 6.49999C0.583252 4.75699 0.590835 4.53883 0.621752 3.85516C0.652669 3.17149 0.761752 2.70483 0.919835 2.29649C1.08126 1.86838 1.33407 1.48059 1.66067 1.16016C1.98094 0.833787 2.36853 0.58117 2.79642 0.419912C3.20475 0.261828 3.67142 0.153328 4.35392 0.121828H4.3545ZM9.59283 1.27683C8.91617 1.24591 8.71317 1.23949 6.99992 1.23949C5.28667 1.23949 5.08367 1.24591 4.407 1.27683C3.78108 1.30541 3.44158 1.40983 3.21525 1.49791C2.916 1.61458 2.70192 1.75283 2.47733 1.97741C2.26444 2.18452 2.10061 2.43666 1.99783 2.71533C1.90975 2.94166 1.80534 3.28116 1.77675 3.90708C1.74584 4.58374 1.73942 4.78674 1.73942 6.49999C1.73942 8.21324 1.74584 8.41624 1.77675 9.09291C1.80534 9.71883 1.90975 10.0583 1.99783 10.2847C2.1005 10.5629 2.26442 10.8155 2.47733 11.0226C2.68442 11.2355 2.937 11.3994 3.21525 11.5021C3.44158 11.5902 3.78108 11.6946 4.407 11.7232C5.08367 11.7541 5.28608 11.7605 6.99992 11.7605C8.71375 11.7605 8.91617 11.7541 9.59283 11.7232C10.2187 11.6946 10.5583 11.5902 10.7846 11.5021C11.0838 11.3854 11.2979 11.2472 11.5225 11.0226C11.7354 10.8155 11.8993 10.5629 12.002 10.2847C12.0901 10.0583 12.1945 9.71883 12.2231 9.09291C12.254 8.41624 12.2604 8.21324 12.2604 6.49999C12.2604 4.78674 12.254 4.58374 12.2231 3.90708C12.1945 3.28116 12.0901 2.94166 12.002 2.71533C11.8853 2.41608 11.7471 2.20199 11.5225 1.97741C11.3154 1.76454 11.0632 1.6007 10.7846 1.49791C10.5583 1.40983 10.2187 1.30541 9.59283 1.27683ZM6.18033 8.47808C6.63805 8.66861 7.14772 8.69433 7.62229 8.55083C8.09686 8.40734 8.5069 8.10353 8.78236 7.6913C9.05782 7.27908 9.18162 6.784 9.13261 6.29064C9.08361 5.79728 8.86484 5.33623 8.51367 4.98624C8.2898 4.76252 8.01912 4.59122 7.72111 4.48466C7.4231 4.37811 7.10517 4.33895 6.79021 4.37002C6.47524 4.40109 6.17109 4.5016 5.89964 4.66432C5.62818 4.82704 5.39618 5.04793 5.22034 5.31107C5.0445 5.57422 4.92919 5.87308 4.88272 6.18614C4.83624 6.4992 4.85976 6.81866 4.95157 7.12155C5.04338 7.42443 5.2012 7.70318 5.41367 7.93775C5.62614 8.17231 5.88798 8.35685 6.18033 8.47808ZM4.66775 4.16783C4.97402 3.86156 5.3376 3.61862 5.73776 3.45287C6.13791 3.28712 6.56679 3.20181 6.99992 3.20181C7.43304 3.20181 7.86192 3.28712 8.26208 3.45287C8.66223 3.61862 9.02582 3.86156 9.33208 4.16783C9.63835 4.47409 9.88129 4.83768 10.047 5.23783C10.2128 5.63799 10.2981 6.06687 10.2981 6.49999C10.2981 6.93312 10.2128 7.362 10.047 7.76215C9.88129 8.16231 9.63835 8.5259 9.33208 8.83216C8.71355 9.45069 7.87465 9.79818 6.99992 9.79818C6.12519 9.79818 5.28628 9.45069 4.66775 8.83216C4.04922 8.21363 3.70174 7.37473 3.70174 6.49999C3.70174 5.62526 4.04922 4.78636 4.66775 4.16783ZM11.0296 3.69299C11.1055 3.6214 11.1662 3.53531 11.2083 3.43981C11.2503 3.34432 11.2727 3.24136 11.2742 3.13704C11.2758 3.03271 11.2563 2.92915 11.2171 2.83247C11.1779 2.73579 11.1197 2.64796 11.0459 2.57418C10.9721 2.50041 10.8843 2.44219 10.7876 2.40296C10.6909 2.36374 10.5874 2.34431 10.483 2.34583C10.3787 2.34736 10.2758 2.36979 10.1803 2.41182C10.0848 2.45384 9.99868 2.5146 9.92708 2.59049C9.78785 2.7381 9.71162 2.93415 9.71458 3.13704C9.71753 3.33993 9.79945 3.53367 9.94292 3.67715C10.0864 3.82063 10.2802 3.90254 10.483 3.9055C10.6859 3.90846 10.882 3.83223 11.0296 3.69299Z" fill="#E3E3E3"/>
</svg>
