<svg width="105" height="35" viewBox="0 0 105 35" fill="none" xmlns="http://www.w3.org/2000/svg">
<path d="M36.5322 19.7689C37.3237 20.4832 38.3374 20.8649 39.3955 20.8649C41.1684 20.8649 42.0851 19.6877 42.182 18.4293H38.5272V16.2009H42.073C41.8509 14.8654 40.6635 13.9886 39.2541 13.9886C38.3212 13.9886 37.3237 14.3377 36.5322 15.0521V12.3162C37.5135 11.7885 38.717 11.5369 39.666 11.5369C42.8483 11.5369 45.1745 13.9399 45.1745 17.2643C45.1745 21.3073 42.4364 23.3084 39.6499 23.3084C37.9255 23.3084 36.8028 22.7036 36.5322 22.5453V19.7689Z" fill="white"/>
<path d="M46.6846 11.8575H49.7861V16.5378L53.1259 11.8575H56.7686L52.5565 17.2522L56.8779 22.9959H53.0008L49.7861 18.2061V22.9959H46.6846V11.8575Z" fill="white"/>
<path d="M63.1376 11.8576C66.1462 11.8576 66.4451 13.8303 66.4451 14.6909C66.4451 15.868 65.6212 16.6961 64.7206 17.0127V17.0452C65.4476 17.2197 67.0628 17.857 67.0628 19.8907C67.0628 21.4494 66.0005 22.9919 63.436 22.9919H57.7703V11.8535H63.1376V11.8576ZM62.1722 16.2496C63.3915 16.2496 63.5978 15.6123 63.5978 15.1983C63.5978 14.6097 63.234 14.086 62.1722 14.086H60.8758V16.2496H62.1722ZM62.2976 20.7675C62.7738 20.7675 63.961 20.7512 63.961 19.5903C63.961 18.4781 62.806 18.4781 62.2976 18.4781H60.8758V20.7675H62.2976Z" fill="white"/>
<path d="M71.5013 11.8575V18.543L75.7902 11.8575H78.8309V22.9959H75.8384V16.3146L71.5495 22.9959H68.5088V11.8575H71.5013Z" fill="white"/>
<path d="M83.4904 11.8575L85.6595 16.5378L87.4322 11.8575H90.8045L85.817 22.9959H82.4929L83.9956 19.9272L79.832 11.8575H83.4904Z" fill="white"/>
<path d="M92.5339 11.8575H95.6357L97.5819 18.6526L99.5325 11.8575H102.634L104.249 22.9959H101.273L100.45 16.5378L98.5794 22.9959H96.5844L94.7191 16.5378L93.8951 22.9959H90.9187L92.5339 11.8575Z" fill="white"/>
<path fill-rule="evenodd" clip-rule="evenodd" d="M0 17.4592C0.0484616 17.0168 0.173653 15.4012 0.278653 14.9791C0.932887 12.2432 2.46346 10.1202 4.78962 8.54528C4.95116 8.4357 5.10866 8.32607 5.2702 8.20836C5.30251 8.18402 5.31866 8.13939 5.34289 8.10692C5.29847 8.10282 5.24597 8.07849 5.20154 8.09065C4.93501 8.15559 4.66039 8.20432 4.40193 8.30173C4.08693 8.4154 3.87693 8.30173 3.68712 8.05819C3.12577 7.34785 2.72192 6.55631 2.50789 5.6714C2.33827 4.98133 2.35847 4.27909 2.43116 3.58091C2.47154 3.175 2.56847 3.08569 2.98039 3.02075C3.58212 2.92738 4.17981 3.01669 4.76943 3.12223C5.93657 3.32518 6.99461 3.81635 7.98 4.46175C8.04868 4.50641 8.1173 4.55106 8.17387 4.60788C8.32329 4.75807 8.3152 4.91232 8.12137 4.99756C7.66098 5.20052 7.1925 5.37913 6.72 5.5496C6.51809 5.62267 6.34039 5.51309 6.17079 5.41569C5.60941 5.10716 4.99558 4.95292 4.38174 4.80679C4.11116 4.74184 4.01424 4.84332 4.09904 5.11528C4.23635 5.55773 4.47462 5.93928 4.77347 6.29246C5.27828 6.89726 5.27424 6.89726 5.98902 6.60908C6.9502 6.21939 7.91941 5.84188 8.87657 5.44406C9.71657 5.09499 9.65598 5.07875 9.0098 4.50235C8.20618 3.78387 7.30559 3.20747 6.37671 2.6676C6.27171 2.60671 6.09402 2.57018 6.10211 2.43217C6.10618 2.29415 6.28789 2.27386 6.39691 2.20891C8.4525 1.03175 10.6777 0.349808 13.016 0.0737843C14.066 -0.0479912 15.1241 -0.0195765 16.166 0.163087C17.7652 0.439111 19.3402 0.808495 20.8264 1.50261C21.2666 1.70963 21.6987 1.93695 22.1187 2.1805C22.2156 2.23732 22.3085 2.30633 22.3933 2.3794C22.4822 2.46058 22.4781 2.54582 22.3691 2.61483C22.2883 2.6676 22.2116 2.73255 22.1268 2.7772C20.9798 3.40231 19.9702 4.22226 18.9647 5.04221C18.7829 5.19241 18.6335 5.19241 18.4397 5.11122C17.6562 4.79055 16.8525 4.51858 16.0125 4.43334C13.9206 4.2182 11.8933 4.42522 10.0639 5.58207C8.7998 6.38174 7.8427 7.46555 7.27329 8.87406C7.10368 9.29622 6.90171 9.7062 6.77657 10.1446C6.70789 10.3922 6.72407 10.4409 6.95829 10.4734C7.4873 10.5546 8.01637 10.6154 8.54539 10.6845C9.68427 10.8306 10.8231 10.9686 11.9619 11.1269C12.4385 11.1919 12.487 11.2771 12.4264 11.7277C12.2487 13.051 12.0791 14.3743 11.9579 15.7057C11.9498 15.7868 11.9377 15.868 11.9135 15.9451C11.8529 16.1278 11.9418 16.1846 12.0993 16.1846C12.491 16.1887 12.8787 16.1846 13.2664 16.1887C13.3471 16.1887 13.4279 16.1887 13.5087 16.1887C13.9973 16.1928 14.0014 16.1928 14.0014 16.6637C14.0054 18.2792 14.0054 19.8907 14.0014 21.5062C14.0014 21.9487 13.9852 21.9487 13.5652 22.0623C12.8141 22.2653 12.0508 22.4074 11.2875 22.5576C11.1179 22.59 11.0654 22.655 11.1381 22.8214C11.2956 23.1949 11.445 23.5723 11.6025 23.9499C11.6994 24.1853 11.8529 24.2949 12.1275 24.2827C12.6283 24.2624 13.1331 24.2786 13.6339 24.2868C13.9812 24.2949 13.9973 24.3071 14.0014 24.644C14.0054 25.606 13.9973 26.568 14.0095 27.53C14.0095 27.7817 13.9125 27.9603 13.7429 28.1308C13.0968 28.7722 12.4546 29.4176 11.8125 30.063C11.2269 30.6515 10.6454 31.2442 10.0598 31.8287C9.76907 32.1169 9.76098 32.1169 9.49848 31.8206C8.25461 30.4121 7.47921 28.7681 7.07941 26.9334C6.7402 25.3909 6.69579 23.8281 6.80887 22.2653C6.8775 21.2789 7.07539 20.3006 7.30961 19.3346C7.34598 19.1885 7.45907 18.9936 7.31368 18.9043C7.24098 18.8637 7.12789 19.0991 7.0552 19.2209C5.94059 21.0841 5.15308 23.0649 4.84212 25.2244C4.70885 26.1459 4.64424 27.0714 4.66039 28.0009C4.66443 28.0983 4.66847 28.1957 4.66039 28.2932C4.65635 28.3663 4.68058 28.4637 4.5675 28.488C4.49481 28.5043 4.44231 28.4596 4.40193 28.4109C4.16366 28.1227 3.91731 27.8426 3.69116 27.5463C2.59269 26.1175 1.72846 24.5587 1.05404 22.8863C0.884421 22.4601 0.884427 22.0948 1.07827 21.6767C1.9102 19.8866 2.98847 18.2711 4.40193 16.8909C4.53924 16.757 4.70077 16.6393 4.7775 16.4485C4.55539 16.4201 4.39385 16.5703 4.21616 16.6596C2.94808 17.305 1.81731 18.1452 0.75923 19.091C0.722887 19.1235 0.690579 19.1641 0.650191 19.1885C0.537118 19.2656 0.468462 19.4563 0.302885 19.3874C0.165577 19.3549 0 18.3035 0 17.4592ZM10.5687 14.8329H10.5768C10.5768 14.3783 10.5646 13.9196 10.5848 13.465C10.5929 13.2174 10.5041 13.0713 10.2941 12.9576C9.53887 12.5436 8.79177 12.1255 8.04461 11.6993C7.875 11.6019 7.75387 11.6303 7.62059 11.7723C7.30961 12.1052 7.02289 12.4583 6.7523 12.8237C6.5625 13.0754 6.56657 13.0834 6.80887 13.2945C7.54387 13.9318 8.28691 14.5651 9.02598 15.2023C9.4702 15.5839 9.91039 15.9654 10.3546 16.347C10.4031 16.3876 10.4556 16.4526 10.5243 16.4242C10.5929 16.3957 10.5727 16.3146 10.5727 16.2577C10.5687 15.7788 10.5687 15.3079 10.5687 14.8329ZM13.0362 19.5091C13.0564 19.3102 13.0402 19.1357 12.8585 18.9855C12.2164 18.4619 11.5864 17.926 10.9564 17.3862C10.811 17.2603 10.71 17.2725 10.5929 17.4146C10.2254 17.853 9.86191 18.2873 9.4823 18.7094C9.35711 18.8474 9.3773 18.953 9.45 19.0991C9.75289 19.6958 10.0396 20.2926 10.3425 20.8892C10.5081 21.214 10.5162 21.214 10.8594 21.0354C11.4773 20.7147 12.0871 20.3737 12.7171 20.0774C12.9837 19.9475 13.0846 19.7851 13.0362 19.5091Z" fill="white"/>
<path fill-rule="evenodd" clip-rule="evenodd" d="M25.5963 17.711C25.5519 18.259 25.463 18.9044 25.3257 19.5376C24.8855 21.5834 24.199 23.5481 23.1894 25.3828C22.0667 27.4246 20.6532 29.2268 18.8844 30.7571C17.6163 31.8491 16.2028 32.6893 14.7248 33.4403C14.1149 33.7488 13.4567 33.9274 12.8186 34.1628C12.6692 34.2156 12.5399 34.1994 12.4026 34.1182C11.708 33.7041 11.0174 33.2739 10.4117 32.7218C10.1007 32.4377 10.1007 32.4255 10.4117 32.1129C11.0538 31.4675 11.704 30.8343 12.3461 30.1889C16.6026 25.9186 20.8551 21.6443 25.1157 17.3741C25.245 17.2442 25.3661 16.9803 25.5519 17.0574C25.6892 17.1142 25.5842 17.3862 25.6003 17.5608C25.6003 17.577 25.5963 17.5933 25.5963 17.711Z" fill="white"/>
<path fill-rule="evenodd" clip-rule="evenodd" d="M21.5249 16.5541H24.5901C24.7031 16.5541 24.8162 16.55 24.9293 16.5581C25.006 16.5622 25.1029 16.5378 25.1352 16.6312C25.1595 16.6962 25.0908 16.7448 25.0464 16.7895C24.9899 16.8504 24.9333 16.9072 24.8768 16.964C21.5249 20.3291 18.177 23.6942 14.825 27.0551C14.7564 27.1242 14.6918 27.1972 14.6151 27.2581C14.5222 27.3352 14.4697 27.2865 14.4616 27.1851C14.4535 27.0551 14.4535 26.9252 14.4535 26.7954C14.4535 26.0769 14.4495 25.3625 14.4575 24.644C14.4616 24.3193 14.4697 24.3152 14.7887 24.3071C15.2895 24.299 15.7943 24.2868 16.2951 24.299C16.5414 24.3031 16.6908 24.2097 16.7797 23.9864C16.9291 23.6089 17.0785 23.2314 17.24 22.858C17.3289 22.655 17.232 22.6063 17.0583 22.5697C16.3476 22.4196 15.6368 22.2531 14.926 22.0948C14.8291 22.0745 14.7362 22.0461 14.6433 22.0218C14.5141 21.9893 14.4535 21.9122 14.4535 21.7782C14.4535 21.6808 14.4495 21.5834 14.4495 21.486V16.7408C14.4495 16.6596 14.4535 16.5784 14.4495 16.4972C14.4374 16.2862 14.5383 16.205 14.7402 16.209C15.1926 16.2131 15.6489 16.2131 16.1012 16.205C16.5212 16.2009 16.5051 16.2009 16.4566 15.8072C16.3395 14.8736 16.2345 13.9319 16.1254 12.9942C16.0729 12.5436 16.0164 12.089 15.9599 11.6384C15.9195 11.3015 15.9558 11.2325 16.2951 11.1797C16.8887 11.0864 17.4824 11.0052 18.076 10.928C19.4693 10.7413 20.8666 10.5627 22.2639 10.3801C22.6799 10.3232 23.1039 10.2908 23.5158 10.2055C23.7702 10.1528 23.9035 10.242 24.0287 10.4491C24.372 11.0255 24.6506 11.6303 24.8849 12.2554C25.2685 13.2824 25.4785 14.3499 25.5835 15.4378C25.5916 15.519 25.6158 15.6245 25.5431 15.6651C25.4664 15.7057 25.4018 15.6205 25.3452 15.5636C24.5901 14.8005 23.8308 14.0414 23.0756 13.2824C22.5143 12.7182 21.9529 12.1499 21.3876 11.5897C21.0887 11.2893 21.1372 11.3096 20.7737 11.5085C19.8893 11.9875 19.017 12.4868 18.1285 12.9617C17.8983 13.0835 17.7974 13.2377 17.8135 13.5016C17.8418 14.0374 17.8095 14.5773 17.8539 15.1131C17.8822 15.4216 17.866 15.73 17.8458 16.0426C17.8135 16.5662 17.8054 16.5703 18.3547 16.5703H21.5249V16.5541ZM15.3501 19.432C15.3702 19.6877 15.3056 19.8866 15.5439 20.0044C16.2547 20.3534 16.9533 20.7228 17.6601 21.0841C17.8014 21.1571 17.9185 21.2018 18.0114 21.007C18.3264 20.3494 18.6495 19.6959 18.9806 19.0464C19.0574 18.8962 19.0008 18.8028 18.912 18.7014C18.5526 18.2874 18.1931 17.8652 17.8256 17.4552C17.6318 17.236 17.6197 17.2401 17.3976 17.4227C16.7999 17.922 16.2102 18.4294 15.6126 18.9205C15.4268 19.0788 15.3097 19.2453 15.3501 19.432Z" fill="white"/>
<path fill-rule="evenodd" clip-rule="evenodd" d="M28.5442 16.757C28.524 20.7878 27.5225 23.6617 25.8021 26.288C23.4638 29.8641 20.2856 32.4376 16.3763 34.11C15.8392 34.3414 15.286 34.5281 14.7488 34.7513C14.2925 34.9462 13.8927 34.7635 13.4888 34.589C13.4081 34.5524 13.4404 34.4753 13.505 34.4469C13.6504 34.3779 13.7998 34.317 13.9533 34.2602C15.92 33.5214 17.6969 32.4457 19.2598 31.0534C21.6667 28.9183 23.4962 26.3569 24.6794 23.341C25.1438 22.1557 25.5477 20.9542 25.79 19.704C26.1292 17.9788 26.1494 16.2496 25.9152 14.5042C25.7536 13.2783 25.4265 12.1174 24.8813 11.0133C24.7683 10.7778 24.6269 10.5586 24.5138 10.3232C24.4169 10.1324 24.4573 10.0675 24.6713 10.035C24.8329 10.0106 25.0025 10.0228 25.1519 9.97817C25.374 9.9092 25.5194 9.99443 25.6688 10.1487C26.2383 10.7332 26.739 11.3705 27.1388 12.0889C28.0919 13.806 28.5725 15.6407 28.5442 16.757Z" fill="white"/>
<path fill-rule="evenodd" clip-rule="evenodd" d="M19.0528 6.01238C19.0246 6.11792 18.9357 6.16665 18.863 6.22755C17.9544 7.015 17.0498 7.79846 16.1371 8.58187C15.608 9.03649 15.075 9.48298 14.5419 9.93357C14.2026 10.2177 14.2026 10.2218 13.8553 9.92947C12.7326 8.97155 11.61 8.01358 10.4873 7.0556C10.3015 6.89729 10.1198 6.73494 9.92995 6.58477C9.77245 6.45893 9.78858 6.35743 9.94608 6.24376C10.7619 5.66739 11.6503 5.24927 12.6317 5.04631C13.4757 4.87177 14.3278 4.79465 15.184 4.84742C16.4723 4.9286 17.6999 5.26957 18.863 5.82161C18.9478 5.86221 19.0528 5.88654 19.0528 6.01238Z" fill="white"/>
<path fill-rule="evenodd" clip-rule="evenodd" d="M25.0019 2.99637C25.2321 2.98825 25.4542 3.00855 25.6763 3.05726C26.0398 3.13844 26.1287 3.22774 26.1812 3.60524C26.3346 4.66469 26.1448 5.67541 25.745 6.65369C25.4785 7.30722 25.0544 7.86738 24.6546 8.43971C24.5335 8.61428 24.4123 8.61428 24.2548 8.47218C23.9075 8.15966 23.5481 7.84708 23.1887 7.54672C23.0433 7.42089 23.0433 7.31939 23.1765 7.18542C23.6288 6.71459 23.9721 6.16255 24.2871 5.59017C24.38 5.41969 24.4729 5.24516 24.5092 5.05031C24.5456 4.83518 24.4487 4.7337 24.2346 4.80676C23.7419 4.96913 23.2613 5.15585 22.7727 5.33446C22.6233 5.38722 22.4698 5.45216 22.3163 5.50089C22.0942 5.56987 21.86 5.58613 21.646 5.50089C21.2421 5.33446 20.8464 5.14773 20.4506 4.96101C20.2769 4.87983 20.3052 4.77023 20.4264 4.66469C20.5233 4.57945 20.6162 4.48609 20.7212 4.41302C22.0175 3.52001 23.4431 3.04914 25.0019 2.99637Z" fill="white"/>
<path fill-rule="evenodd" clip-rule="evenodd" d="M20.2171 10.1447C20.0798 10.165 19.9586 10.1041 19.8496 9.9904C19.2317 9.345 18.6098 8.70364 18 8.05011C17.8182 7.85529 17.8223 7.79843 18.0323 7.61175C18.5169 7.17742 19.0177 6.75931 19.4982 6.32498C19.6073 6.22758 19.6921 6.23161 19.8011 6.29251C19.9021 6.34528 20.0071 6.39396 20.1 6.45082C21.3034 7.21393 22.3575 8.14348 23.2419 9.26789C23.3025 9.345 23.363 9.42211 23.4155 9.50331C23.4882 9.61698 23.4317 9.69818 23.3186 9.71438C23.0965 9.75094 22.8703 9.76715 22.6442 9.79558C21.8728 9.90516 21.1055 10.0188 20.3382 10.1284C20.3019 10.1406 20.2696 10.1406 20.2171 10.1447Z" fill="white"/>
<path fill-rule="evenodd" clip-rule="evenodd" d="M21.7673 16.1887C20.794 16.1887 19.8248 16.1887 18.8515 16.1887C18.7385 16.1887 18.6254 16.1928 18.5123 16.1807C18.3992 16.1685 18.3831 16.0954 18.4437 16.0102C18.48 15.9574 18.5365 15.9168 18.585 15.8762C19.6552 14.9548 20.7254 14.0333 21.7996 13.116C22.0338 12.913 22.05 12.909 22.2802 13.1322C23.201 14.0455 24.1177 14.971 25.0344 15.8924C25.0587 15.9168 25.0788 15.9371 25.1031 15.9655C25.2121 16.1035 25.196 16.1685 25.0304 16.1847C24.9173 16.1928 24.8042 16.1887 24.6912 16.1928H21.7673V16.1887Z" fill="white"/>
<path fill-rule="evenodd" clip-rule="evenodd" d="M8.13356 10.1487C7.30969 10.0513 7.35817 9.91732 7.58028 9.36933C7.93969 8.47225 8.40008 7.64017 9.09876 6.9582C9.33297 6.73087 9.33704 6.72279 9.57527 6.92164C9.86204 7.15711 10.1367 7.41283 10.4234 7.64824C10.5647 7.76595 10.5809 7.87962 10.4557 8.01359C10.3911 8.08257 10.3345 8.16786 10.2699 8.23683C9.71665 8.80513 9.15528 9.36933 8.60606 9.94575C8.45665 10.1041 8.29508 10.1812 8.13356 10.1487Z" fill="white"/>
<path d="M36.7539 27.3596H37.9372V27.6965H37.1174V28.3095H37.3476C37.5212 28.3095 37.7555 28.3339 37.9412 28.5003C38.0745 28.618 38.1634 28.8047 38.1634 29.0199C38.1634 29.1944 38.0987 29.442 37.8726 29.5962C37.6949 29.714 37.5091 29.7262 37.3557 29.7262H36.7539V27.3596ZM37.1174 29.3892H37.3314C37.4243 29.3892 37.7958 29.3892 37.7958 29.028C37.7958 28.9184 37.7595 28.6505 37.3395 28.6505H37.1174V29.3892Z" fill="white"/>
<path d="M42.2062 28.1308L40.6191 29.8276V27.3596H40.9826V28.9549L42.5697 27.254V29.7261H42.2062V28.1308Z" fill="white"/>
<path d="M45.1304 27.66C45.3324 27.4205 45.5424 27.3109 45.8452 27.3109C46.0956 27.3109 46.2531 27.388 46.3622 27.4814C46.5156 27.6154 46.556 27.7615 46.556 27.9238C46.556 28.2039 46.3945 28.35 46.2652 28.4231C46.5601 28.5043 46.7014 28.7438 46.7014 29.0239C46.7014 29.2593 46.6247 29.4623 46.3945 29.6125C46.241 29.714 46.0351 29.7748 45.8372 29.7748C45.397 29.7748 45.1143 29.5516 44.9487 29.2025L45.2637 29.036C45.4131 29.4095 45.7443 29.4339 45.8654 29.4339C45.9543 29.4339 46.0795 29.4136 46.1683 29.3567C46.3097 29.2674 46.3339 29.1416 46.3339 29.0482C46.3339 28.6748 45.9906 28.6423 45.7766 28.6423H45.5626V28.3054H45.7766C46.027 28.3054 46.1966 28.1714 46.1966 27.9482C46.1966 27.8711 46.1764 27.798 46.1158 27.7412C46.031 27.66 45.926 27.6478 45.8372 27.6478C45.7039 27.6478 45.5181 27.6762 45.3606 27.8873L45.1304 27.66Z" fill="white"/>
<path d="M49.5238 28.2851H50.5293V27.3596H50.8928V29.7262H50.5293V28.622H49.5238V29.7262H49.1643V27.3596H49.5238V28.2851Z" fill="white"/>
<path d="M54.7569 27.6965H53.8199V28.2648H54.7285V28.6017H53.8199V29.3892H54.7569V29.7262H53.4563V27.3596H54.7569V27.6965Z" fill="white"/>
<path d="M58.9778 27.9117C58.7276 27.6681 58.4694 27.6478 58.3398 27.6478C57.8271 27.6478 57.4917 28.0294 57.4917 28.553C57.4917 29.0563 57.8394 29.4339 58.3398 29.4339C58.4491 29.4339 58.7116 29.4136 58.9778 29.1619V29.5922C58.9055 29.6409 58.6832 29.7748 58.328 29.7748C58.1298 29.7748 57.7987 29.7302 57.4917 29.446C57.2657 29.2268 57.1162 28.9386 57.1162 28.553C57.1162 28.2445 57.2094 27.8954 57.4917 27.6234C57.7382 27.388 58.021 27.3109 58.3441 27.3109C58.6467 27.3109 58.8289 27.388 58.9741 27.4854V27.9117H58.9778Z" fill="white"/>
<path d="M65.9845 27.9117C65.7337 27.6681 65.4755 27.6478 65.3459 27.6478C64.8332 27.6478 64.5021 28.0294 64.5021 28.553C64.5021 29.0563 64.8493 29.4339 65.3459 29.4339C65.4552 29.4339 65.7177 29.4136 65.9845 29.1619V29.5922C65.9073 29.6409 65.6893 29.7748 65.3378 29.7748C65.1359 29.7748 64.8048 29.7302 64.5021 29.446C64.2718 29.2268 64.1223 28.9386 64.1223 28.553C64.1223 28.2445 64.2193 27.8954 64.5021 27.6234C64.7486 27.388 65.0309 27.3109 65.3545 27.3109C65.6571 27.3109 65.8387 27.388 65.9845 27.4854V27.9117Z" fill="white"/>
<path d="M70.7781 28.5449C70.7781 29.2349 70.2568 29.7748 69.5545 29.7748C68.8474 29.7748 68.3267 29.2349 68.3267 28.5449C68.3267 27.8467 68.8474 27.3109 69.5545 27.3109C70.2568 27.3109 70.7781 27.8508 70.7781 28.5449ZM70.4026 28.5449C70.4026 28.0213 70.0511 27.6478 69.5545 27.6478C69.0536 27.6478 68.7065 28.0213 68.7065 28.5449C68.7065 29.0645 69.0574 29.4339 69.5545 29.4339C70.0511 29.4339 70.4026 29.0645 70.4026 28.5449Z" fill="white"/>
<path d="M75.5802 28.5449C75.5802 29.2349 75.0595 29.7748 74.3529 29.7748C73.6457 29.7748 73.125 29.2349 73.125 28.5449C73.125 27.8467 73.65 27.3109 74.3529 27.3109C75.0552 27.3109 75.5802 27.8508 75.5802 28.5449ZM75.2009 28.5449C75.2009 28.0213 74.8495 27.6478 74.3529 27.6478C73.852 27.6478 73.5048 28.0213 73.5048 28.5449C73.5048 29.0645 73.852 29.4339 74.3529 29.4339C74.8495 29.4339 75.2009 29.0645 75.2009 28.5449Z" fill="white"/>
<path d="M78.0354 27.3596H79.2188V27.6965H78.3986V28.3095H78.629C78.8026 28.3095 79.0372 28.3339 79.2226 28.5003C79.356 28.618 79.4449 28.8047 79.4449 29.0199C79.4449 29.1944 79.3801 29.442 79.1502 29.5962C78.9724 29.714 78.7865 29.7262 78.637 29.7262H78.0354V27.3596ZM78.3986 29.3892H78.6129C78.7056 29.3892 79.0774 29.3892 79.0774 29.028C79.0774 28.9184 79.0409 28.6505 78.6172 28.6505H78.3949V29.3892H78.3986Z" fill="white"/>
<path d="M81.8962 27.3596H82.26V29.3892H83.0877V27.3596H83.4552V29.3892H84.2828V27.3596H84.6466V29.3892H84.9493V30.262H84.6102V29.7262H81.8962V27.3596Z" fill="white"/>
<path d="M88.5927 27.6965H87.6557V28.2648H88.5681V28.6017H87.6557V29.3892H88.5927V29.7262H87.292V27.3596H88.5927V27.6965Z" fill="white"/>
<path d="M92.8131 27.9117C92.5624 27.6681 92.2999 27.6478 92.175 27.6478C91.6618 27.6478 91.3265 28.0294 91.3265 28.553C91.3265 29.0563 91.6699 29.4339 92.175 29.4339C92.2838 29.4339 92.5425 29.4136 92.8131 29.1619V29.5922C92.7402 29.6409 92.5179 29.7748 92.1665 29.7748C91.965 29.7748 91.6334 29.7302 91.3307 29.446C91.1004 29.2268 90.9509 28.9386 90.9509 28.553C90.9509 28.2445 91.0479 27.8954 91.3307 27.6234C91.5772 27.388 91.86 27.3109 92.1831 27.3109C92.4857 27.3109 92.6716 27.388 92.8131 27.4854V27.9117Z" fill="white"/>
<path d="M95.9299 27.6965V29.7262H95.5624V27.6965H95.0256V27.3596H96.4635V27.6965H95.9299Z" fill="white"/>
<path d="M99.1484 27.3596C99.3386 27.3596 99.5443 27.3515 99.7302 27.4854C99.8716 27.5829 99.997 27.7493 99.997 28.0213C99.997 28.1552 99.9686 28.3176 99.7907 28.4556C100.09 28.5449 100.203 28.8047 100.203 29.0279C100.203 29.166 100.158 29.4095 99.9643 29.5678C99.7623 29.7383 99.5041 29.7342 99.3343 29.7342H98.7932V27.3637H99.1484V27.3596ZM99.157 28.3744H99.2657C99.3423 28.3744 99.6455 28.3744 99.6455 28.0294C99.6455 27.7046 99.3546 27.6965 99.2738 27.6965H99.1527V28.3744H99.157ZM99.157 29.3892H99.375C99.7586 29.3892 99.8352 29.1822 99.8352 29.032C99.8352 28.8697 99.7463 28.6748 99.3788 28.6748H99.157V29.3892Z" fill="white"/>
<path d="M105 28.5449C105 29.2349 104.479 29.7748 103.772 29.7748C103.069 29.7748 102.549 29.2349 102.549 28.5449C102.549 27.8467 103.074 27.3109 103.772 27.3109C104.475 27.3109 105 27.8508 105 28.5449ZM104.624 28.5449C104.624 28.0213 104.277 27.6478 103.776 27.6478C103.279 27.6478 102.928 28.0213 102.928 28.5449C102.928 29.0645 103.279 29.4339 103.776 29.4339C104.273 29.4339 104.624 29.0645 104.624 28.5449Z" fill="white"/>
<path d="M62.3138 28.3906H61.0859V28.7275H62.3138V28.3906Z" fill="white"/>
</svg>
