<svg width="24" height="24" viewBox="0 0 24 24" fill="none" xmlns="http://www.w3.org/2000/svg">
<path fill-rule="evenodd" clip-rule="evenodd" d="M8.05257 7.34999C8.092 7.10872 8.15301 6.87471 8.23356 6.64999H1.845L3.4749 5.02009C3.61158 4.88341 3.61158 4.6618 3.4749 4.52512C3.33821 4.38844 3.11661 4.38844 2.97992 4.52512L0.752537 6.75251C0.615854 6.88919 0.615854 7.1108 0.752537 7.24748L2.97992 9.47487C3.11661 9.61155 3.33821 9.61155 3.4749 9.47487C3.61158 9.33818 3.61158 9.11658 3.4749 8.97989L1.845 7.34999H8.05257ZM15.9475 7.34999H22.1551L20.5252 8.97989C20.3885 9.11658 20.3885 9.33818 20.5252 9.47487C20.6618 9.61155 20.8834 9.61155 21.0201 9.47487L23.2475 7.24748C23.3842 7.1108 23.3842 6.88919 23.2475 6.75251L21.0201 4.52512C20.8834 4.38844 20.6618 4.38844 20.5252 4.52512C20.3885 4.6618 20.3885 4.88341 20.5252 5.02009L22.1551 6.64999H15.7665C15.847 6.87471 15.9081 7.10872 15.9475 7.34999Z" fill="#636363"/>
<path fill-rule="evenodd" clip-rule="evenodd" d="M11.5193 6.92777C11.6794 6.83263 11.8661 6.80751 12.0385 6.85371C12.211 6.89992 12.36 7.015 12.4512 7.17748C12.5426 7.34046 12.5679 7.53771 12.5176 7.72546L11.4721 11.6271L11.4666 11.6472L11.0463 13.216L11.0435 13.2269L10.9413 13.6082C10.8698 13.8749 11.0281 14.1491 11.2949 14.2206C11.5616 14.292 11.8358 14.1337 11.9072 13.867L12.4362 11.8929C12.4614 11.8051 12.5025 11.723 12.5569 11.6508C12.614 11.5749 12.6846 11.5119 12.764 11.4647C12.8434 11.4175 12.9301 11.3872 13.019 11.3747C13.1079 11.3622 13.1976 11.3677 13.2833 11.3906C13.3689 11.4136 13.4494 11.4537 13.5201 11.5089C13.5908 11.5642 13.6508 11.6338 13.6959 11.7144C13.7412 11.795 13.7707 11.8849 13.7823 11.9791C13.7939 12.0734 13.7872 12.1697 13.7623 12.2624L13.5567 13.0297L13.5521 13.0468L13.5497 13.056L13.2369 14.2233C13.1654 14.49 13.3237 14.7642 13.5905 14.8357C13.8572 14.9071 14.1314 14.7488 14.2028 14.4821L14.5211 13.2944C14.5731 13.1116 14.692 12.9578 14.8495 12.8642C15.0096 12.7691 15.1963 12.744 15.3687 12.7902C15.5412 12.8364 15.6902 12.9515 15.7814 13.1139C15.8728 13.2769 15.8981 13.4742 15.8478 13.6619L15.5325 14.8385C15.4611 15.1052 15.6193 15.3794 15.8861 15.4508C16.1516 15.522 16.4246 15.3654 16.4975 15.1008C16.5003 15.0934 16.5029 15.0859 16.5053 15.0784C16.5537 14.9286 16.6641 14.8 16.8203 14.725C16.9776 14.6495 17.1677 14.6356 17.3477 14.6938C17.5277 14.7519 17.6738 14.8744 17.7571 15.0277C17.8399 15.1799 17.8541 15.3489 17.8058 15.4986L16.768 18.7101C16.4443 19.7116 15.7141 20.5421 14.7297 21.0146C13.7444 21.4877 12.5857 21.5623 11.5099 21.2146L10.1646 20.7799C10.1618 20.779 10.1581 20.7778 10.1537 20.7764C10.0121 20.7315 9.04684 20.4253 8.39336 19.6996C7.90218 19.2079 7.54454 18.6126 7.35006 17.9687C6.97505 16.7217 6.70109 15.4542 6.42324 14.1687L6.42324 14.1687L6.42323 14.1687C6.32913 13.7333 6.23458 13.2958 6.13551 12.8564C6.0999 12.6985 6.12968 12.5389 6.21596 12.4085C6.30267 12.2774 6.44464 12.1791 6.61845 12.1429C6.82994 12.0987 7.05594 12.1238 7.25859 12.2164C7.46109 12.309 7.62395 12.4614 7.72411 12.6452L8.41848 13.922C8.42492 14.1369 8.5706 14.3313 8.78897 14.3898C9.0557 14.4613 9.32987 14.303 9.40134 14.0362L11.1878 7.36914C11.2381 7.1814 11.3586 7.0232 11.5193 6.92777ZM8.7796 12.4929L10.2219 7.11032C10.3388 6.67399 10.6205 6.29848 11.0086 6.06798C11.3972 5.83718 11.8609 5.77085 12.2973 5.88779C12.7338 6.00473 13.1022 6.29402 13.3233 6.6882C13.5442 7.08187 13.6004 7.54794 13.4835 7.98428L12.8387 10.3907C12.8524 10.3884 12.8661 10.3863 12.8798 10.3844C13.1011 10.3533 13.3263 10.3669 13.5421 10.4247C13.7579 10.4825 13.9597 10.5833 14.1358 10.721C14.3119 10.8586 14.4586 11.0301 14.5681 11.2251C14.6719 11.4102 14.7403 11.6132 14.7703 11.8233C15.0489 11.7497 15.344 11.7483 15.6275 11.8243C16.064 11.9412 16.4324 12.2305 16.6535 12.6247C16.8338 12.9459 16.9044 13.3154 16.8607 13.6776C17.1246 13.6372 17.3972 13.6588 17.6552 13.7422C18.0725 13.8771 18.4263 14.1652 18.6356 14.5499C18.8454 14.9357 18.8924 15.388 18.7573 15.8061L17.7195 19.0176C17.3091 20.2874 16.3865 21.3285 15.1625 21.9161C13.9396 22.5032 12.5155 22.5905 11.2024 22.1661L9.85727 21.7315L9.70106 21.681C9.67809 21.6736 9.65603 21.6646 9.63495 21.6544C8.902 21.3824 8.23551 20.9565 7.68593 20.4063C7.08119 19.801 6.63597 19.0632 6.39271 18.2575C6.00517 16.9689 5.7191 15.6453 5.4391 14.3496C5.40603 14.2009 5.36719 14.0491 5.32806 13.8963C5.05074 12.8131 4.75963 11.6761 6.41441 11.1639C6.83742 11.0756 7.2803 11.1268 7.67436 11.3069C8.06854 11.4871 8.39631 11.7887 8.60257 12.1674L8.7796 12.4929Z" fill="#636363"/>
</svg>
