<svg width="32" height="32" viewBox="0 0 32 32" fill="none" xmlns="http://www.w3.org/2000/svg">
<path fill-rule="evenodd" clip-rule="evenodd" d="M32 16C32 24.8367 24.8366 32 16 32C7.16344 32 0 24.8367 0 16C0 7.16328 7.16344 0 16 0C24.8366 0 32 7.16328 32 16ZM23.047 12C23.6101 12 23.7276 12.2871 23.6101 12.6771H23.6094C23.3735 13.7507 21.1069 16.9121 21.1069 16.9121C20.91 17.2243 20.8313 17.3807 21.1069 17.7314C21.2043 17.8663 21.4116 18.0674 21.6488 18.2974C21.8928 18.5341 22.1684 18.8014 22.3882 19.0586C23.1865 19.9493 23.7886 20.7 23.9571 21.2171C24.1101 21.7371 23.8438 22 23.3126 22H21.4532C20.9547 22 20.7039 21.7236 20.1617 21.1261C19.9321 20.873 19.6503 20.5624 19.2752 20.1907C18.1716 19.1371 17.6992 19 17.4229 19C17.0482 19 16.9363 19.105 16.9363 19.6314V21.2836C16.9363 21.7371 16.7904 22 15.6082 22C13.6369 22 11.473 20.815 9.93598 18.6293C7.6304 15.4286 7 13.0086 7 12.5214C7 12.2479 7.10625 12 7.63749 12H9.49824C9.97352 12 10.152 12.2057 10.3284 12.7164C11.2386 15.3407 12.7721 17.6343 13.4025 17.6343C13.6391 17.6343 13.7474 17.5264 13.7474 16.9314V14.2186C13.705 13.4465 13.4325 13.1125 13.2308 12.8652C13.1063 12.7125 13.0087 12.5929 13.0087 12.4236C13.0087 12.2171 13.1865 12 13.4818 12H16.4058C16.7996 12 16.9299 12.2086 16.9299 12.6771V16.3264C16.9299 16.7171 17.1077 16.8536 17.226 16.8536C17.4626 16.8536 17.6595 16.7171 18.093 16.2871C19.4324 14.8043 20.378 12.5214 20.378 12.5214C20.4963 12.2479 20.7145 12 21.1876 12H23.047Z" fill="white"/>
</svg>
