<svg width="32" height="32" viewBox="0 0 32 32" fill="none" xmlns="http://www.w3.org/2000/svg">
<path fill-rule="evenodd" clip-rule="evenodd" d="M16 32C24.8366 32 32 24.8367 32 16C32 7.16328 24.8366 0 16 0C7.16344 0 0 7.16328 0 16C0 24.8367 7.16344 32 16 32ZM24.5779 10.5754C24.8757 10.8594 25.09 11.2125 25.1993 11.5996C25.6 13.0242 25.6 16 25.6 16C25.6 16 25.6 18.9758 25.1993 20.4004C24.9786 21.1871 24.3293 21.807 23.5021 22.0168C22.0043 22.4 16 22.4 16 22.4C16 22.4 9.99572 22.4 8.49785 22.0168C7.67285 21.807 7.02142 21.1871 6.80072 20.4004C6.4 18.9758 6.4 16 6.4 16C6.4 16 6.4 13.0242 6.80072 11.5973C6.90966 11.2102 7.12383 10.8566 7.42173 10.573C7.71963 10.2895 8.09076 10.0852 8.49785 9.98125C9.99572 9.6 16 9.6 16 9.6C16 9.6 22.0043 9.6 23.5021 9.9832C23.9091 10.0875 24.28 10.2918 24.5779 10.5754ZM19.0643 15.9797L14.0929 13.2688V18.7313L19.0643 15.9797Z" fill="white"/>
</svg>
